<svg width="27" height="26" viewBox="0 0 27 26" fill="none" xmlns="http://www.w3.org/2000/svg">
<path d="M26 19.6667C26 22.1213 20.6274 24.1111 14 24.1111C7.37258 24.1111 2 22.1213 2 19.6667C2 17.2121 7.37258 15.2222 14 15.2222C20.6274 15.2222 26 17.2121 26 19.6667Z" fill="#F35483"/>
<path d="M24.2222 18.7778C24.2222 20.7415 19.6456 22.3333 14 22.3333C8.35442 22.3333 3.77777 20.7415 3.77777 18.7778C3.77777 16.8141 8.35442 15.2222 14 15.2222C19.6456 15.2222 24.2222 16.8141 24.2222 18.7778Z" fill="#F3F5FA"/>
<path d="M20.1333 7.26939C20.1333 12.1456 13.7333 18.0667 13.7333 18.0667C13.7333 18.0667 7.33333 12.1456 7.33333 7.26939C7.33333 5.60664 8.00761 4.012 9.20784 2.83626C10.4081 1.66052 12.0359 1 13.7333 1C15.4307 1 17.0586 1.66052 18.2588 2.83626C19.459 4.012 20.1333 5.60664 20.1333 7.26939Z" fill="#F35483"/>
<path d="M13.7333 10.2444C14.9115 10.2444 15.8667 9.28932 15.8667 8.11112C15.8667 6.93291 14.9115 5.97778 13.7333 5.97778C12.5551 5.97778 11.6 6.93291 11.6 8.11112C11.6 9.28932 12.5551 10.2444 13.7333 10.2444Z" fill="#F3F5FA"/>
</svg>
