<svg width="205" height="203" viewBox="0 0 205 203" fill="none" xmlns="http://www.w3.org/2000/svg">
<path d="M152.901 48.1565H151.791V17.654C151.791 15.3356 151.335 13.04 150.45 10.8981C149.565 8.75623 148.268 6.81007 146.632 5.17074C144.997 3.53142 143.055 2.23103 140.919 1.34384C138.782 0.456638 136.492 2.194e-06 134.179 0H69.7104C65.0395 -1.03388e-05 60.5599 1.85995 57.2571 5.1707C53.9543 8.48146 52.0988 12.9718 52.0988 17.6539V184.993C52.0988 189.675 53.9543 194.165 57.2571 197.476C60.5599 200.787 65.0395 202.647 69.7104 202.647H134.179C138.85 202.647 143.329 200.787 146.632 197.476C149.935 194.165 151.791 189.675 151.791 184.993V69.8686H152.901L152.901 48.1565Z" fill="#E6E6E6"/>
<path d="M148.386 17.2282V184.321C148.386 187.818 147.001 191.171 144.534 193.644C142.067 196.116 138.722 197.505 135.234 197.505H70.4559C66.9676 197.505 63.6221 196.116 61.1555 193.644C58.6889 191.171 57.3032 187.818 57.3031 184.321V17.2282C57.3032 13.7315 58.6889 10.3781 61.1555 7.90552C63.6221 5.43298 66.9676 4.04389 70.4559 4.04382H78.3142C77.9281 4.99499 77.781 6.0267 77.886 7.04819C77.991 8.06969 78.3448 9.04968 78.9163 9.90195C79.4877 10.7542 80.2594 11.4527 81.1634 11.9358C82.0673 12.419 83.0759 12.6721 84.1003 12.6729H121.034C122.058 12.6721 123.067 12.419 123.971 11.9358C124.875 11.4526 125.646 10.7542 126.218 9.90194C126.789 9.04967 127.143 8.06968 127.248 7.04819C127.353 6.02669 127.206 4.99499 126.82 4.04382H135.234C138.722 4.04389 142.067 5.43298 144.534 7.90552C147.001 10.3781 148.386 13.7315 148.386 17.2282Z" fill="white"/>
<path d="M84.612 50.4097H74.6642C73.8446 50.4088 73.0588 50.082 72.4792 49.501C71.8997 48.9201 71.5737 48.1324 71.5728 47.3108V37.3391C71.5737 36.5175 71.8997 35.7299 72.4792 35.1489C73.0588 34.5679 73.8446 34.2412 74.6642 34.2402H84.612C85.4316 34.2412 86.2174 34.5679 86.797 35.1489C87.3765 35.7299 87.7025 36.5175 87.7035 37.3391V47.3108C87.7025 48.1324 87.3765 48.9201 86.797 49.501C86.2174 50.082 85.4316 50.4088 84.612 50.4097Z" fill="#6ADF9B"/>
<path d="M107.474 50.4097H97.5264C96.7067 50.4088 95.921 50.082 95.3414 49.501C94.7619 48.9201 94.4359 48.1324 94.4349 47.3108V37.3391C94.4359 36.5175 94.7619 35.7299 95.3414 35.1489C95.921 34.5679 96.7067 34.2412 97.5264 34.2402H107.474C108.294 34.2412 109.08 34.5679 109.659 35.1489C110.239 35.7299 110.565 36.5175 110.566 37.3391V47.3108C110.565 48.1324 110.239 48.9201 109.659 49.501C109.08 50.082 108.294 50.4087 107.474 50.4097Z" fill="#6ADF9B"/>
<path d="M130.336 50.4097H120.389C119.569 50.4088 118.783 50.082 118.204 49.501C117.624 48.9201 117.298 48.1324 117.297 47.3108V37.3391C117.298 36.5175 117.624 35.7299 118.204 35.1489C118.783 34.5679 119.569 34.2412 120.389 34.2402H130.336C131.156 34.2412 131.942 34.5679 132.521 35.1489C133.101 35.7299 133.427 36.5175 133.428 37.3391V47.3108C133.427 48.1324 133.101 48.9201 132.521 49.501C131.942 50.082 131.156 50.4088 130.336 50.4097Z" fill="#E6E6E6"/>
<path d="M84.612 75.8899H74.6642C73.8446 75.889 73.0588 75.5622 72.4792 74.9813C71.8997 74.4003 71.5737 73.6126 71.5728 72.791V62.8193C71.5737 61.9978 71.8997 61.2101 72.4792 60.6291C73.0588 60.0482 73.8446 59.7214 74.6642 59.7205H84.612C85.4316 59.7214 86.2174 60.0482 86.797 60.6291C87.3765 61.2101 87.7025 61.9978 87.7035 62.8193V72.791C87.7025 73.6126 87.3765 74.4003 86.797 74.9812C86.2174 75.5622 85.4316 75.889 84.612 75.8899Z" fill="#E6E6E6"/>
<path d="M107.474 75.8899H97.5264C96.7067 75.889 95.921 75.5622 95.3414 74.9813C94.7619 74.4003 94.4359 73.6126 94.4349 72.791V62.8193C94.4359 61.9978 94.7619 61.2101 95.3414 60.6291C95.921 60.0482 96.7067 59.7214 97.5264 59.7205H107.474C108.294 59.7214 109.08 60.0482 109.659 60.6291C110.239 61.2101 110.565 61.9978 110.566 62.8193V72.791C110.565 73.6126 110.239 74.4003 109.659 74.9812C109.08 75.5622 108.294 75.889 107.474 75.8899Z" fill="#E6E6E6"/>
<path d="M130.336 75.8899H120.389C119.569 75.889 118.783 75.5622 118.204 74.9813C117.624 74.4003 117.298 73.6126 117.297 72.791V62.8193C117.298 61.9978 117.624 61.2101 118.204 60.6291C118.783 60.0482 119.569 59.7214 120.389 59.7205H130.336C131.156 59.7214 131.942 60.0482 132.521 60.6291C133.101 61.2101 133.427 61.9978 133.428 62.8193V72.791C133.427 73.6126 133.101 74.4003 132.521 74.9812C131.942 75.5622 131.156 75.889 130.336 75.8899Z" fill="#E6E6E6"/>
<path d="M84.612 101.365H74.6642C73.8446 101.364 73.0588 101.038 72.4792 100.457C71.8997 99.8757 71.5737 99.0881 71.5728 98.2665V88.2948C71.5737 87.4732 71.8997 86.6855 72.4792 86.1046C73.0588 85.5236 73.8446 85.1969 74.6642 85.1959H84.612C85.4316 85.1969 86.2174 85.5236 86.797 86.1046C87.3765 86.6855 87.7025 87.4732 87.7035 88.2948V98.2665C87.7025 99.0881 87.3765 99.8757 86.797 100.457C86.2174 101.038 85.4316 101.364 84.612 101.365Z" fill="#E6E6E6"/>
<path d="M107.474 101.365H97.5264C96.7067 101.364 95.921 101.038 95.3414 100.457C94.7619 99.8757 94.4359 99.0881 94.4349 98.2665V88.2948C94.4359 87.4732 94.7619 86.6855 95.3414 86.1046C95.921 85.5236 96.7067 85.1969 97.5264 85.1959H107.474C108.294 85.1969 109.08 85.5236 109.659 86.1046C110.239 86.6855 110.565 87.4732 110.566 88.2948V98.2665C110.565 99.0881 110.239 99.8757 109.659 100.457C109.08 101.038 108.294 101.364 107.474 101.365Z" fill="#E6E6E6"/>
<path d="M130.336 101.365H120.389C119.569 101.364 118.783 101.038 118.204 100.457C117.624 99.8757 117.298 99.0881 117.297 98.2665V88.2948C117.298 87.4732 117.624 86.6855 118.204 86.1046C118.783 85.5236 119.569 85.1969 120.389 85.1959H130.336C131.156 85.1969 131.942 85.5236 132.521 86.1046C133.101 86.6855 133.427 87.4732 133.428 88.2948V98.2665C133.427 99.0881 133.101 99.8757 132.521 100.457C131.942 101.038 131.156 101.364 130.336 101.365Z" fill="#E6E6E6"/>
<path d="M84.612 126.845H74.6642C73.8446 126.845 73.0588 126.518 72.4792 125.937C71.8997 125.356 71.5737 124.568 71.5728 123.747V113.775C71.5737 112.953 71.8997 112.166 72.4792 111.585C73.0588 111.004 73.8446 110.677 74.6642 110.676H84.612C85.4316 110.677 86.2174 111.004 86.797 111.585C87.3765 112.166 87.7025 112.953 87.7035 113.775V123.747C87.7025 124.568 87.3765 125.356 86.797 125.937C86.2174 126.518 85.4316 126.845 84.612 126.845Z" fill="#E6E6E6"/>
<path d="M107.474 126.845H97.5264C96.7067 126.845 95.921 126.518 95.3414 125.937C94.7619 125.356 94.4359 124.568 94.4349 123.747V113.775C94.4359 112.953 94.7619 112.166 95.3414 111.585C95.921 111.004 96.7067 110.677 97.5264 110.676H107.474C108.294 110.677 109.08 111.004 109.659 111.585C110.239 112.166 110.565 112.953 110.566 113.775V123.747C110.565 124.568 110.239 125.356 109.659 125.937C109.08 126.518 108.294 126.845 107.474 126.845Z" fill="#E6E6E6"/>
<path d="M130.336 126.845H120.389C119.569 126.845 118.783 126.518 118.204 125.937C117.624 125.356 117.298 124.568 117.297 123.747V113.775C117.298 112.953 117.624 112.166 118.204 111.585C118.783 111.004 119.569 110.677 120.389 110.676H130.336C131.156 110.677 131.942 111.004 132.521 111.585C133.101 112.166 133.427 112.953 133.428 113.775V123.747C133.427 124.568 133.101 125.356 132.521 125.937C131.942 126.518 131.156 126.845 130.336 126.845Z" fill="#E6E6E6"/>
<path d="M138.889 199.495H135.483L133.863 186.328H138.889L138.889 199.495Z" fill="#FFB8B8"/>
<path d="M133.051 198.52H139.619V202.665H128.916C128.916 202.12 129.023 201.581 129.23 201.078C129.438 200.576 129.743 200.119 130.127 199.734C130.511 199.349 130.967 199.043 131.468 198.835C131.97 198.627 132.508 198.52 133.051 198.52Z" fill="#2F2E41"/>
<path d="M151.667 199.495H148.261L146.641 186.328H151.667L151.667 199.495Z" fill="#FFB8B8"/>
<path d="M145.829 198.52H152.396V202.665H141.693C141.693 202.12 141.8 201.581 142.008 201.078C142.216 200.576 142.521 200.119 142.905 199.734C143.289 199.349 143.744 199.043 144.246 198.835C144.748 198.627 145.286 198.52 145.829 198.52Z" fill="#2F2E41"/>
<path d="M151.251 160.279C150.884 160.043 150.573 159.728 150.341 159.358C150.108 158.988 149.959 158.572 149.905 158.138C149.85 157.704 149.891 157.263 150.024 156.847C150.158 156.431 150.381 156.049 150.678 155.729L148.436 123.83L154.895 124.458L155.072 155.696C155.576 156.232 155.867 156.934 155.889 157.67C155.911 158.406 155.663 159.124 155.192 159.689C154.721 160.254 154.06 160.626 153.333 160.735C152.607 160.844 151.866 160.681 151.251 160.279H151.251Z" fill="#FFB8B8"/>
<path d="M138.728 192.862L134.979 192.682C134.66 192.667 134.358 192.53 134.137 192.299C133.915 192.068 133.791 191.76 133.789 191.44L133.527 153.416C133.526 153.236 133.563 153.057 133.637 152.893C133.711 152.728 133.82 152.581 133.956 152.463C134.091 152.344 134.251 152.256 134.424 152.205C134.597 152.154 134.778 152.141 134.956 152.167L149.955 154.35C150.251 154.391 150.522 154.539 150.719 154.765C150.916 154.991 151.024 155.28 151.025 155.58L152.954 190.813C152.955 190.979 152.924 191.143 152.862 191.296C152.799 191.449 152.707 191.588 152.591 191.705C152.475 191.823 152.337 191.916 152.185 191.98C152.032 192.043 151.869 192.076 151.704 192.076H147.662C147.364 192.077 147.076 191.971 146.849 191.777C146.622 191.582 146.473 191.313 146.428 191.018L143.934 175.127C143.898 174.895 143.778 174.683 143.599 174.532C143.419 174.381 143.19 174.3 142.956 174.304C142.721 174.309 142.496 174.398 142.321 174.556C142.147 174.714 142.036 174.929 142.008 175.163L140.029 191.759C139.991 192.063 139.845 192.343 139.616 192.546C139.388 192.75 139.093 192.862 138.787 192.863C138.768 192.863 138.748 192.863 138.728 192.862Z" fill="#2F2E41"/>
<path d="M141.367 155.582C138.062 153.741 135.479 153.257 134.234 153.133C134.068 153.117 133.908 153.067 133.762 152.987C133.616 152.907 133.488 152.798 133.386 152.667C133.281 152.535 133.204 152.383 133.159 152.22C133.115 152.057 133.104 151.887 133.127 151.72L136.721 124.975C136.928 123.41 137.531 121.925 138.472 120.66C139.414 119.395 140.662 118.392 142.1 117.747C143.491 117.106 145.023 116.833 146.549 116.953C148.076 117.073 149.546 117.582 150.821 118.433C150.944 118.515 151.065 118.599 151.183 118.684C152.651 119.762 153.768 121.252 154.392 122.965C155.017 124.678 155.122 126.538 154.693 128.311C152.49 137.348 151.733 152.163 151.603 155.041C151.593 155.287 151.511 155.524 151.366 155.722C151.222 155.921 151.022 156.072 150.793 156.157C149.437 156.651 148.006 156.906 146.563 156.911C144.746 156.922 142.957 156.465 141.367 155.582Z" fill="#F35483"/>
<path d="M149.898 134.549C149.746 134.439 149.621 134.298 149.532 134.134C149.443 133.97 149.391 133.788 149.381 133.602L148.908 125.004C148.861 124.153 149.131 123.314 149.664 122.649C150.198 121.985 150.958 121.542 151.798 121.406C152.639 121.27 153.499 121.451 154.214 121.913C154.929 122.376 155.448 123.088 155.671 123.911L157.75 131.597C157.836 131.918 157.792 132.26 157.627 132.548C157.463 132.836 157.19 133.047 156.871 133.135L150.957 134.742C150.777 134.791 150.588 134.799 150.405 134.766C150.222 134.732 150.048 134.658 149.898 134.549Z" fill="#F35483"/>
<path d="M144.373 114.116C148.141 114.116 151.196 111.054 151.196 107.277C151.196 103.5 148.141 100.438 144.373 100.438C140.605 100.438 137.551 103.5 137.551 107.277C137.551 111.054 140.605 114.116 144.373 114.116Z" fill="#FFB8B8"/>
<path d="M119.65 120.713C119.684 120.864 119.706 121.016 119.716 121.17L131.649 128.07L134.549 126.397L137.641 130.454L131.437 134.887L117.823 124.122C117.268 124.328 116.664 124.359 116.09 124.213C115.516 124.066 115.001 123.747 114.612 123.3C114.224 122.852 113.98 122.296 113.914 121.706C113.848 121.117 113.963 120.521 114.243 119.998C114.523 119.475 114.956 119.05 115.483 118.78C116.01 118.509 116.606 118.406 117.193 118.484C117.78 118.561 118.329 118.816 118.768 119.214C119.207 119.613 119.515 120.136 119.65 120.713Z" fill="#FFB8B8"/>
<path d="M132.075 127.484C132.055 127.298 132.077 127.11 132.139 126.934C132.202 126.758 132.302 126.598 132.434 126.466L138.508 120.377C139.109 119.774 139.913 119.415 140.762 119.371C141.612 119.326 142.449 119.598 143.11 120.135C143.771 120.672 144.211 121.435 144.345 122.277C144.478 123.12 144.295 123.982 143.832 124.698L139.507 131.378C139.326 131.657 139.043 131.852 138.719 131.921C138.395 131.99 138.056 131.928 137.778 131.747L132.638 128.403C132.482 128.302 132.35 128.167 132.252 128.008C132.155 127.849 132.094 127.669 132.075 127.484Z" fill="#F35483"/>
<path d="M149.201 112.688C147.928 114.047 145.565 113.317 145.399 111.461C145.386 111.316 145.387 111.171 145.402 111.027C145.487 110.205 145.961 109.458 145.848 108.59C145.822 108.374 145.742 108.168 145.614 107.992C144.6 106.63 142.219 108.601 141.262 107.368C140.675 106.612 141.365 105.423 140.915 104.578C140.32 103.463 138.559 104.013 137.455 103.403C136.227 102.723 136.3 100.834 137.109 99.6845C138.095 98.2829 139.824 97.535 141.532 97.4273C143.24 97.3195 144.936 97.7822 146.53 98.405C148.341 99.1126 150.138 100.091 151.252 101.687C152.608 103.629 152.738 106.239 152.06 108.51C151.648 109.891 150.24 111.578 149.201 112.688Z" fill="#2F2E41"/>
</svg>
