<svg width="251" height="175" viewBox="0 0 251 175" fill="none" xmlns="http://www.w3.org/2000/svg">
<path d="M211.927 121.53C211.667 121.243 211.473 120.903 211.359 120.534C211.245 120.165 211.214 119.775 211.267 119.393C211.32 119.01 211.457 118.644 211.668 118.32C211.878 117.996 212.158 117.721 212.486 117.517L210.385 108.364L214.968 110.073L216.261 118.503C216.569 119.076 216.656 119.742 216.505 120.374C216.354 121.007 215.976 121.563 215.442 121.936C214.908 122.309 214.255 122.474 213.607 122.399C212.959 122.324 212.361 122.015 211.927 121.53Z" fill="#FFB8B8"/>
<path d="M211.61 114.265L207.581 106.498L208.125 86.9399L208.384 87.4839C208.686 88.1176 215.755 103.04 215.251 108.036L216.059 112.601L211.61 114.265Z" fill="#3F3D56"/>
<path d="M208.983 171.666H212.213L213.75 159.241L208.982 159.241L208.983 171.666Z" fill="#FFB8B8"/>
<path d="M208.159 170.615L214.521 170.615H214.521C215.596 170.615 216.628 171.04 217.388 171.799C218.148 172.557 218.576 173.585 218.576 174.657V174.789L208.159 174.789L208.159 170.615Z" fill="#2F2E41"/>
<path d="M177.062 169.218L180.175 170.081L184.994 158.521L180.4 157.247L177.062 169.218Z" fill="#FFB8B8"/>
<path d="M176.551 167.985L182.681 169.684L182.681 169.685C183.717 169.972 184.596 170.658 185.125 171.591C185.654 172.525 185.789 173.63 185.501 174.663L185.466 174.789L175.43 172.007L176.551 167.985Z" fill="#2F2E41"/>
<path d="M205.762 166.822L199.242 120.273L185.16 166.559L174.087 162.789L189.957 100.81L190.061 100.802L206.686 99.6494L218.697 163.06L205.762 166.822Z" fill="#2F2E41"/>
<path d="M204.037 78.8749C204.037 78.8749 197.977 75.7218 189.808 77.0356C189.808 77.0356 185.46 87.4953 189.808 91.6591L190.994 102.129C190.994 102.129 202.061 108.698 205.75 101.078L205.223 92.4071C205.223 92.4071 207.858 88.2484 205.75 85.2039C204.487 83.3441 203.884 81.1161 204.037 78.8749Z" fill="#6ADF9B"/>
<path d="M204.805 126.498L205.869 104.487L202.858 78.3028L202.996 78.2819C206.946 77.6882 208.212 84.4724 208.264 84.7615L215.138 123.516L204.805 126.498Z" fill="#3F3D56"/>
<path d="M191.403 126.727L179.251 125.381L179.254 125.249C179.297 123.455 180.343 81.2764 183.274 78.2892C186.222 75.2842 191.786 76.5844 192.021 76.6415L192.138 76.6697L191.138 94.5171L191.403 126.727Z" fill="#3F3D56"/>
<path d="M193.641 101.519C193.273 101.639 192.883 101.677 192.499 101.631C192.114 101.585 191.744 101.456 191.415 101.251C191.086 101.047 190.806 100.774 190.595 100.45C190.384 100.127 190.246 99.7605 190.192 99.3781L180.951 97.5727L184.38 94.0918L192.629 96.3398C193.28 96.2915 193.925 96.4828 194.444 96.8774C194.962 97.2721 195.317 97.8426 195.442 98.4809C195.567 99.1193 195.453 99.7811 195.121 100.341C194.789 100.901 194.262 101.32 193.641 101.519Z" fill="#FFB8B8"/>
<path d="M188.71 99.4054L185.699 98.7599C181.254 100.093 173.495 95.4 170.359 93.3155C169.769 92.9233 169.578 92.1462 169.79 91.0061C170.104 89.4113 170.986 87.9835 172.273 86.986L183.317 78.2539L186.105 77.7891L186.933 82.4678L179.896 90.0042L190.254 95.6263L188.71 99.4054Z" fill="#3F3D56"/>
<path d="M187.519 73.0745V67.0076C187.519 64.4408 188.542 61.9791 190.362 60.164C192.182 58.349 194.651 57.3293 197.225 57.3293C199.799 57.3293 202.268 58.349 204.088 60.164C205.909 61.9791 206.931 64.4408 206.931 67.0076V73.0745C206.931 73.4192 206.793 73.7497 206.549 73.9934C206.304 74.2371 205.973 74.3742 205.627 74.3746H188.823C188.477 74.3742 188.146 74.2371 187.902 73.9934C187.657 73.7497 187.52 73.4192 187.519 73.0745Z" fill="#2F2E41"/>
<path d="M196.835 74.315C200.765 74.315 203.951 71.1382 203.951 67.2193C203.951 63.3004 200.765 60.1235 196.835 60.1235C192.905 60.1235 189.719 63.3004 189.719 67.2193C189.719 71.1382 192.905 74.315 196.835 74.315Z" fill="#FFB8B8"/>
<path d="M189.524 67.1919C189.456 67.1136 189.406 67.0217 189.376 66.9223C189.347 66.823 189.34 66.7185 189.354 66.616L190.197 60.7629C190.214 60.6438 190.26 60.5308 190.332 60.434C190.403 60.3372 190.498 60.2597 190.607 60.2085C194.91 58.2006 199.273 58.1981 203.575 60.2009C203.689 60.2549 203.788 60.3374 203.86 60.4405C203.933 60.5437 203.977 60.6638 203.989 60.7892L204.552 66.6499C204.562 66.7501 204.55 66.8512 204.518 66.9467C204.486 67.0422 204.435 67.1301 204.367 67.2046C204.299 67.279 204.216 67.3386 204.124 67.3793C204.032 67.42 203.932 67.441 203.831 67.441H202.404C202.266 67.4406 202.131 67.4013 202.015 67.3275C201.899 67.2538 201.806 67.1486 201.747 67.0243L201.132 65.7084C201.092 65.6232 201.025 65.5532 200.942 65.5091C200.859 65.4649 200.763 65.4489 200.67 65.4635C200.577 65.4781 200.491 65.5226 200.426 65.5901C200.36 65.6576 200.318 65.7446 200.307 65.8379L200.185 66.8082C200.163 66.9828 200.078 67.1434 199.945 67.2599C199.813 67.3764 199.643 67.4408 199.466 67.441H190.071C189.967 67.441 189.865 67.4188 189.77 67.3758C189.676 67.3328 189.592 67.2701 189.524 67.1919Z" fill="#2F2E41"/>
<path d="M159.64 11.6619H0V110.788H159.64V11.6619Z" fill="#E6E6E6"/>
<path d="M39.9432 30.7583H10.7051V49.709H39.9432V30.7583Z" fill="white"/>
<path d="M76.2738 30.7583H47.0357V49.709H76.2738V30.7583Z" fill="white"/>
<path d="M112.604 30.7583H83.3662V49.709H112.604V30.7583Z" fill="white"/>
<path d="M148.935 30.7583H119.697V49.709H148.935V30.7583Z" fill="white"/>
<path d="M39.9432 57.5808H10.7051V76.5315H39.9432V57.5808Z" fill="white"/>
<path d="M76.2738 57.5808H47.0357V76.5315H76.2738V57.5808Z" fill="white"/>
<path d="M112.604 57.5808H83.3662V76.5315H112.604V57.5808Z" fill="white"/>
<path d="M148.935 57.5808H119.697V76.5315H148.935V57.5808Z" fill="white"/>
<path d="M39.9432 84.4033H10.7051V103.354H39.9432V84.4033Z" fill="white"/>
<path d="M76.2738 84.4033H47.0357V103.354H76.2738V84.4033Z" fill="white"/>
<path d="M112.604 84.4033H83.3662V103.354H112.604V84.4033Z" fill="white"/>
<path d="M148.935 84.4033H119.697V103.354H148.935V84.4033Z" fill="white"/>
<path d="M41.8105 23.3238C44.2326 23.3238 46.1962 21.3659 46.1962 18.9506C46.1962 16.5354 44.2326 14.5774 41.8105 14.5774C39.3883 14.5774 37.4247 16.5354 37.4247 18.9506C37.4247 21.3659 39.3883 23.3238 41.8105 23.3238Z" fill="white"/>
<path d="M114.321 23.3238C116.743 23.3238 118.707 21.3659 118.707 18.9506C118.707 16.5353 116.743 14.5774 114.321 14.5774C111.899 14.5774 109.935 16.5353 109.935 18.9506C109.935 21.3659 111.899 23.3238 114.321 23.3238Z" fill="white"/>
<path d="M43.5648 0H40.0562V20.1168H43.5648V0Z" fill="#E6E6E6"/>
<path d="M116.075 0H112.567V20.1168H116.075V0Z" fill="#E6E6E6"/>
<path d="M140.928 40.2338C140.926 41.817 140.352 43.3466 139.31 44.5413C138.268 45.7361 136.829 46.5159 135.257 46.7373C133.684 46.9588 132.085 46.6071 130.752 45.7468C129.419 44.8866 128.442 43.5756 128.001 42.0547C127.56 40.5338 127.684 38.9052 128.35 37.4681C129.016 36.0311 130.181 34.8821 131.628 34.2323C133.076 33.5825 134.711 33.4755 136.231 33.9311C137.752 34.3866 139.057 35.374 139.906 36.7119C140.574 37.7655 140.929 38.9869 140.928 40.2338Z" fill="#6ADF9B"/>
<path d="M139.906 36.712L133.397 43.2006C132.988 42.5692 130.709 39.6344 130.709 39.6344C131.001 39.3401 131.313 39.0658 131.642 38.8133L133.532 41.3259L139.144 35.7302C139.428 36.0327 139.683 36.3614 139.906 36.712Z" fill="white"/>
<path d="M68.2665 67.0563C68.265 68.6395 67.6905 70.1691 66.6487 71.3638C65.6069 72.5586 64.1677 73.3384 62.5955 73.5598C61.0234 73.7813 59.4239 73.4296 58.0909 72.5693C56.758 71.7091 55.7811 70.398 55.3398 68.8772C54.8986 67.3563 55.0225 65.7277 55.6889 64.2906C56.3553 62.8536 57.5194 61.7046 58.9673 61.0548C60.4152 60.405 62.0496 60.2981 63.5703 60.7536C65.0909 61.2091 66.3956 62.1965 67.2447 63.5344C67.9133 64.588 68.2677 65.8095 68.2665 67.0563Z" fill="#6ADF9B"/>
<path d="M67.2447 63.5342L60.7363 70.0229C60.3272 69.3914 58.0483 66.4567 58.0483 66.4567C58.3403 66.1624 58.652 65.888 58.9811 65.6356L60.8709 68.1481L66.4825 62.5525C66.7671 62.855 67.0223 63.1837 67.2447 63.5342Z" fill="white"/>
<path d="M31.936 67.0561C31.9345 68.6393 31.36 70.1689 30.3182 71.3636C29.2764 72.5584 27.8371 73.3382 26.265 73.5596C24.6928 73.7811 23.0933 73.4294 21.7603 72.5691C20.4274 71.7089 19.4505 70.3978 19.0092 68.877C18.568 67.3561 18.6919 65.7275 19.3583 64.2904C20.0248 62.8534 21.1889 61.7044 22.6368 61.0546C24.0847 60.4048 25.7191 60.2978 27.2397 60.7534C28.7604 61.2089 30.0651 62.1963 30.9141 63.5342C31.5828 64.5878 31.9372 65.8092 31.936 67.0561Z" fill="#6ADF9B"/>
<path d="M30.9141 63.5342L24.4057 70.0229C23.9967 69.3914 21.7177 66.4567 21.7177 66.4567C22.0098 66.1624 22.3215 65.888 22.6506 65.6356L24.5404 68.1481L30.152 62.5525C30.4366 62.855 30.6918 63.1837 30.9141 63.5342Z" fill="white"/>
</svg>
