<svg width="74" height="17" viewBox="0 0 74 17" fill="none" xmlns="http://www.w3.org/2000/svg">
<path d="M8.5 1.41663L10.6888 5.85079L15.5833 6.56621L12.0417 10.0158L12.8775 14.8891L8.5 12.587L4.1225 14.8891L4.95833 10.0158L1.41667 6.56621L6.31125 5.85079L8.5 1.41663Z" fill="#FCB000"/>
<path d="M27.5 1.41663L29.6888 5.85079L34.5833 6.56621L31.0417 10.0158L31.8775 14.8891L27.5 12.587L23.1225 14.8891L23.9583 10.0158L20.4167 6.56621L25.3113 5.85079L27.5 1.41663Z" fill="#FCB000"/>
<path d="M46.5 1.41663L48.6888 5.85079L53.5833 6.56621L50.0417 10.0158L50.8775 14.8891L46.5 12.587L42.1225 14.8891L42.9583 10.0158L39.4167 6.56621L44.3112 5.85079L46.5 1.41663Z" fill="#FCB000"/>
<path d="M65.5 1.41663L67.6888 5.85079L72.5833 6.56621L69.0417 10.0158L69.8775 14.8891L65.5 12.587L61.1225 14.8891L61.9583 10.0158L58.4167 6.56621L63.3113 5.85079L65.5 1.41663Z" fill="#FCB000"/>
</svg>
