<svg width="232" height="35" viewBox="0 0 232 35" fill="none" xmlns="http://www.w3.org/2000/svg">
<path d="M17.0491 2.84155L21.4392 11.7354L31.2566 13.1704L24.1528 20.0895L25.8293 29.8642L17.0491 25.2468L8.26882 29.8642L9.9453 20.0895L2.84155 13.1704L12.6589 11.7354L17.0491 2.84155Z" fill="#C4C4C4"/>
<path d="M66.5246 2.84155L70.9148 11.7354L80.7321 13.1704L73.6284 20.0895L75.3049 29.8642L66.5246 25.2468L57.7444 29.8642L59.4209 20.0895L52.3171 13.1704L62.1345 11.7354L66.5246 2.84155Z" fill="#C4C4C4"/>
<path d="M116 2.84155L120.39 11.7354L130.207 13.1704L123.104 20.0895L124.78 29.8642L116 25.2468L107.22 29.8642L108.896 20.0895L101.792 13.1704L111.61 11.7354L116 2.84155Z" fill="#C4C4C4"/>
<path d="M165.475 2.84155L169.865 11.7354L179.683 13.1704L172.579 20.0895L174.256 29.8642L165.475 25.2468L156.695 29.8642L158.372 20.0895L151.268 13.1704L161.085 11.7354L165.475 2.84155Z" fill="#C4C4C4"/>
<path d="M214.951 2.84155L219.341 11.7354L229.159 13.1704L222.055 20.0895L223.731 29.8642L214.951 25.2468L206.171 29.8642L207.847 20.0895L200.744 13.1704L210.561 11.7354L214.951 2.84155Z" fill="#C4C4C4"/>
</svg>
