<svg width="30" height="30" viewBox="0 0 30 30" fill="none" xmlns="http://www.w3.org/2000/svg">
<path d="M20.8864 17.3864C20.7805 17.6263 20.7489 17.8924 20.7957 18.1505C20.8425 18.4085 20.9655 18.6466 21.1489 18.8341L21.1966 18.8818C21.3445 19.0296 21.4619 19.205 21.5419 19.3982C21.622 19.5913 21.6632 19.7983 21.6632 20.0074C21.6632 20.2165 21.622 20.4235 21.5419 20.6166C21.4619 20.8097 21.3445 20.9852 21.1966 21.133C21.0488 21.2809 20.8734 21.3982 20.6802 21.4783C20.4871 21.5583 20.2801 21.5995 20.071 21.5995C19.862 21.5995 19.6549 21.5583 19.4618 21.4783C19.2687 21.3982 19.0932 21.2809 18.9455 21.133L18.8977 21.0852C18.7103 20.9018 18.4721 20.7788 18.2141 20.732C17.9561 20.6853 17.6899 20.7168 17.45 20.8227C17.2147 20.9236 17.0141 21.091 16.8727 21.3044C16.7314 21.5178 16.6556 21.7679 16.6545 22.0239V22.1591C16.6545 22.581 16.4869 22.9857 16.1886 23.284C15.8902 23.5824 15.4856 23.75 15.0636 23.75C14.6417 23.75 14.237 23.5824 13.9387 23.284C13.6403 22.9857 13.4727 22.581 13.4727 22.1591V22.0875C13.4666 21.8242 13.3813 21.5689 13.2281 21.3546C13.0749 21.1404 12.8608 20.9773 12.6136 20.8864C12.3737 20.7805 12.1076 20.7489 11.8495 20.7957C11.5915 20.8425 11.3534 20.9655 11.1659 21.1489L11.1182 21.1966C10.9704 21.3445 10.795 21.4619 10.6018 21.5419C10.4087 21.622 10.2017 21.6632 9.99261 21.6632C9.78354 21.6632 9.57652 21.622 9.38339 21.5419C9.19026 21.4619 9.0148 21.3445 8.86705 21.1966C8.71913 21.0488 8.60178 20.8734 8.52172 20.6802C8.44166 20.4871 8.40045 20.2801 8.40045 20.071C8.40045 19.862 8.44166 19.6549 8.52172 19.4618C8.60178 19.2687 8.71913 19.0932 8.86705 18.9455L8.91477 18.8977C9.09815 18.7103 9.22117 18.4721 9.26796 18.2141C9.31475 17.9561 9.28316 17.6899 9.17727 17.45C9.07644 17.2147 8.90901 17.0141 8.6956 16.8727C8.48218 16.7314 8.2321 16.6556 7.97614 16.6545H7.84091C7.41897 16.6545 7.01432 16.4869 6.71597 16.1886C6.41761 15.8902 6.25 15.4856 6.25 15.0636C6.25 14.6417 6.41761 14.237 6.71597 13.9387C7.01432 13.6403 7.41897 13.4727 7.84091 13.4727H7.9125C8.17579 13.4666 8.43114 13.3813 8.64535 13.2281C8.85956 13.0749 9.02273 12.8608 9.11364 12.6136C9.21952 12.3737 9.25111 12.1076 9.20432 11.8495C9.15753 11.5915 9.03452 11.3534 8.85114 11.1659L8.80341 11.1182C8.65549 10.9704 8.53815 10.795 8.45809 10.6018C8.37803 10.4087 8.33682 10.2017 8.33682 9.99261C8.33682 9.78354 8.37803 9.57652 8.45809 9.38339C8.53815 9.19026 8.65549 9.0148 8.80341 8.86705C8.95116 8.71913 9.12662 8.60178 9.31975 8.52172C9.51289 8.44166 9.71991 8.40045 9.92898 8.40045C10.138 8.40045 10.3451 8.44166 10.5382 8.52172C10.7313 8.60178 10.9068 8.71913 11.0545 8.86705L11.1023 8.91477C11.2897 9.09815 11.5279 9.22117 11.7859 9.26796C12.0439 9.31475 12.3101 9.28316 12.55 9.17727H12.6136C12.8489 9.07644 13.0496 8.90901 13.1909 8.6956C13.3322 8.48218 13.4081 8.2321 13.4091 7.97614V7.84091C13.4091 7.41897 13.5767 7.01432 13.8751 6.71597C14.1734 6.41761 14.5781 6.25 15 6.25C15.4219 6.25 15.8266 6.41761 16.1249 6.71597C16.4233 7.01432 16.5909 7.41897 16.5909 7.84091V7.9125C16.5919 8.16847 16.6678 8.41855 16.8091 8.63196C16.9504 8.84537 17.1511 9.0128 17.3864 9.11364C17.6263 9.21952 17.8924 9.25111 18.1505 9.20432C18.4085 9.15753 18.6466 9.03452 18.8341 8.85114L18.8818 8.80341C19.0296 8.65549 19.205 8.53815 19.3982 8.45809C19.5913 8.37803 19.7983 8.33682 20.0074 8.33682C20.2165 8.33682 20.4235 8.37803 20.6166 8.45809C20.8097 8.53815 20.9852 8.65549 21.133 8.80341C21.2809 8.95116 21.3982 9.12662 21.4783 9.31975C21.5583 9.51289 21.5995 9.71991 21.5995 9.92898C21.5995 10.138 21.5583 10.3451 21.4783 10.5382C21.3982 10.7313 21.2809 10.9068 21.133 11.0545L21.0852 11.1023C20.9018 11.2897 20.7788 11.5279 20.732 11.7859C20.6853 12.0439 20.7168 12.3101 20.8227 12.55V12.6136C20.9236 12.8489 21.091 13.0496 21.3044 13.1909C21.5178 13.3322 21.7679 13.4081 22.0239 13.4091H22.1591C22.581 13.4091 22.9857 13.5767 23.284 13.8751C23.5824 14.1734 23.75 14.5781 23.75 15C23.75 15.4219 23.5824 15.8266 23.284 16.1249C22.9857 16.4233 22.581 16.5909 22.1591 16.5909H22.0875C21.8315 16.5919 21.5815 16.6678 21.368 16.8091C21.1546 16.9504 20.9872 17.1511 20.8864 17.3864Z" fill="#6ADF9B"/>
<path d="M18.7083 12.5L13.6667 17.0833L11.375 15" stroke="white" stroke-linecap="round" stroke-linejoin="round"/>
</svg>
