<svg width="180" height="175" viewBox="0 0 180 175" fill="none" xmlns="http://www.w3.org/2000/svg">
<g clip-path="url(#clip0_286_2534)">
<path d="M69.4983 159.392L64.8108 163.705L68.536 157.458C65.6011 152.14 60.801 147.543 60.801 147.543C60.801 147.543 50.8426 157.078 50.8426 164.573C50.8426 172.068 55.3011 174.685 60.801 174.685C66.3009 174.685 70.7594 172.068 70.7594 164.573C70.7594 162.904 70.2653 161.135 69.4983 159.392Z" fill="#F2F2F2"/>
<path d="M63.6053 163.938V164.308C63.5834 168.602 62.8586 171.953 61.4367 174.312C61.4165 174.347 61.3946 174.38 61.3744 174.414L61.2152 174.317L61.0633 174.222C62.6409 171.675 63.199 168.073 63.2192 164.328C63.221 164.207 63.2228 164.085 63.221 163.962C63.2155 162.376 63.1185 160.772 62.963 159.214C62.952 159.093 62.9392 158.971 62.9264 158.848C62.7104 156.793 62.3993 154.828 62.0808 153.122C62.0589 153.001 62.0351 152.881 62.0113 152.762C61.4604 149.876 60.8986 147.785 60.7705 147.323C60.7559 147.266 60.7467 147.235 60.7449 147.228L60.9187 147.178L60.9206 147.176L61.0963 147.127C61.0981 147.134 61.1292 147.239 61.1804 147.432C61.3763 148.157 61.885 150.123 62.3846 152.716C62.4066 152.833 62.4304 152.954 62.4524 153.075C62.7122 154.459 62.9666 156.006 63.1679 157.63C63.2192 158.038 63.2649 158.441 63.3052 158.837C63.3198 158.96 63.3326 159.083 63.3436 159.203C63.512 160.888 63.5992 162.466 63.6053 163.938Z" fill="white"/>
<path d="M62.3846 152.716C62.262 152.733 62.1376 152.749 62.0113 152.762C61.6684 152.797 61.3238 152.815 60.9791 152.815C59.5099 152.817 58.059 152.489 56.7333 151.857C56.6564 151.954 56.5796 152.051 56.5009 152.149C57.8955 152.83 59.4272 153.182 60.9791 153.181C61.3471 153.181 61.7149 153.161 62.0808 153.122C62.2053 153.109 62.3297 153.093 62.4523 153.075C63.4645 152.93 64.4487 152.632 65.3713 152.191C65.2926 152.091 65.2158 151.992 65.1407 151.895C64.2675 152.303 63.3388 152.58 62.3846 152.716Z" fill="white"/>
<path d="M63.3052 158.838C63.1789 158.845 63.0526 158.849 62.9263 158.849C62.8879 158.85 62.8477 158.85 62.8092 158.85C61.2173 158.85 59.6489 158.466 58.2379 157.729C56.8269 156.993 55.615 155.926 54.7056 154.62C54.6324 154.728 54.5592 154.836 54.4878 154.946C55.4357 156.267 56.6849 157.343 58.132 158.086C59.5791 158.829 61.1825 159.216 62.8092 159.216C62.8605 159.216 62.9117 159.216 62.963 159.214C63.0911 159.213 63.2173 159.209 63.3436 159.203C65.2976 159.103 67.1814 158.443 68.7698 157.301C68.7113 157.193 68.6527 157.085 68.5923 156.978C67.0486 158.098 65.2111 158.745 63.3052 158.838Z" fill="white"/>
<path d="M63.6053 163.938C63.4772 163.949 63.3491 163.957 63.221 163.962C63.0837 163.968 62.9465 163.971 62.8092 163.971C60.67 163.969 58.5892 163.274 56.8783 161.991C55.1674 160.708 53.9184 158.905 53.3184 156.853C53.236 157.001 53.1537 157.148 53.075 157.296C53.7511 159.343 55.0555 161.125 56.803 162.389C58.5504 163.653 60.652 164.335 62.8092 164.337C62.9465 164.337 63.0837 164.335 63.2191 164.328C63.3491 164.324 63.4772 164.317 63.6053 164.308C66.1929 164.106 68.6068 162.928 70.3583 161.014C70.3199 160.879 70.276 160.745 70.232 160.61C68.5403 162.538 66.1633 163.732 63.6053 163.938Z" fill="white"/>
<path d="M179.739 9.37172H0.260477C0.191546 9.37149 0.125525 9.34396 0.076867 9.29516C0.0282093 9.24637 0.00088501 9.18029 0.00088501 9.1114C0.00088501 9.04251 0.0282093 8.97644 0.076867 8.92764C0.125525 8.87885 0.191546 8.85131 0.260477 8.85107H179.739C179.808 8.85131 179.874 8.87885 179.923 8.92764C179.972 8.97644 179.999 9.04251 179.999 9.1114C179.999 9.18029 179.972 9.24637 179.923 9.29516C179.874 9.34396 179.808 9.37149 179.739 9.37172Z" fill="#CACACA"/>
<path d="M6.12362 5.72713C7.70614 5.72713 8.98903 4.44507 8.98903 2.86356C8.98903 1.28206 7.70614 0 6.12362 0C4.5411 0 3.25821 1.28206 3.25821 2.86356C3.25821 4.44507 4.5411 5.72713 6.12362 5.72713Z" fill="#3F3D56"/>
<path d="M16.0223 5.72713C17.6048 5.72713 18.8877 4.44507 18.8877 2.86356C18.8877 1.28206 17.6048 0 16.0223 0C14.4398 0 13.1569 1.28206 13.1569 2.86356C13.1569 4.44507 14.4398 5.72713 16.0223 5.72713Z" fill="#3F3D56"/>
<path d="M25.921 5.72713C27.5035 5.72713 28.7864 4.44507 28.7864 2.86356C28.7864 1.28206 27.5035 0 25.921 0C24.3385 0 23.0556 1.28206 23.0556 2.86356C23.0556 4.44507 24.3385 5.72713 25.921 5.72713Z" fill="#3F3D56"/>
<path d="M173.809 1.7515H166.775C166.638 1.75102 166.506 1.69596 166.408 1.59837C166.311 1.50079 166.256 1.36863 166.256 1.23085C166.256 1.09308 166.311 0.960923 166.408 0.863335C166.506 0.765746 166.638 0.710684 166.775 0.710208H173.809C173.877 0.709972 173.945 0.723263 174.009 0.749321C174.072 0.77538 174.13 0.813695 174.178 0.862065C174.227 0.910435 174.265 0.967909 174.292 1.03119C174.318 1.09448 174.331 1.16233 174.331 1.23085C174.331 1.29938 174.318 1.36723 174.292 1.43051C174.265 1.4938 174.227 1.55127 174.178 1.59964C174.13 1.64801 174.072 1.68633 174.009 1.71239C173.945 1.73845 173.877 1.75174 173.809 1.7515Z" fill="#3F3D56"/>
<path d="M173.809 3.70389H166.775C166.638 3.70342 166.506 3.64836 166.408 3.55077C166.311 3.45318 166.256 3.32102 166.256 3.18325C166.256 3.04547 166.311 2.91332 166.408 2.81573C166.506 2.71814 166.638 2.66308 166.775 2.6626H173.809C173.877 2.66236 173.945 2.67566 174.009 2.70171C174.072 2.72777 174.13 2.76609 174.178 2.81446C174.227 2.86283 174.265 2.9203 174.292 2.98359C174.318 3.04687 174.331 3.11472 174.331 3.18325C174.331 3.25177 174.318 3.31962 174.292 3.38291C174.265 3.44619 174.227 3.50367 174.178 3.55204C174.13 3.60041 174.072 3.63872 174.009 3.66478C173.945 3.69084 173.877 3.70413 173.809 3.70389Z" fill="#3F3D56"/>
<path d="M173.809 5.65629H166.775C166.638 5.65582 166.506 5.60075 166.408 5.50316C166.311 5.40557 166.256 5.27341 166.256 5.13564C166.256 4.99787 166.311 4.86571 166.408 4.76812C166.506 4.67054 166.638 4.61547 166.775 4.61499H173.809C173.877 4.61476 173.945 4.62805 174.009 4.65411C174.072 4.68017 174.13 4.71848 174.178 4.76685C174.227 4.81522 174.265 4.8727 174.292 4.93598C174.318 4.99927 174.331 5.06712 174.331 5.13564C174.331 5.20416 174.318 5.27202 174.292 5.3353C174.265 5.39859 174.227 5.45607 174.178 5.50444C174.13 5.55281 174.072 5.59112 174.009 5.61717C173.945 5.64323 173.877 5.65653 173.809 5.65629Z" fill="#3F3D56"/>
<path d="M169.884 21.1445H5.40695V108.231H169.884V21.1445Z" fill="#F0F0F0"/>
<path d="M169.884 37.4456V36.5916H137.867V21.1445H137.012V36.5916H104.995V21.1445H104.14V36.5916H72.1232V21.1445H71.2686V36.5916H39.2513V21.1445H38.3967V36.5916H5.40695V37.4456H38.3967V54.5106H5.40695V55.3647H38.3967V72.4297H5.40695V73.2837H38.3967V90.3457H5.40695V91.1997H38.3967V108.231H39.2513V91.1997H71.2686V108.231H72.1232V91.1997H104.14V108.231H104.995V91.1997H137.012V108.231H137.867V91.1997H169.884V90.3457H137.867V73.2837H169.884V72.4297H137.867V55.3647H169.884V54.5107H137.867V37.4456L169.884 37.4456ZM71.2686 90.3457H39.2513V73.2837H71.2686V90.3457ZM71.2686 72.4297H39.2513V55.3647H71.2686V72.4297ZM71.2686 54.5107H39.2513V37.4456H71.2686V54.5107ZM104.14 90.3457H72.1232V73.2838H104.14V90.3457ZM104.14 72.4297H72.1232V55.3647H104.14V72.4297ZM104.14 54.5107H72.1232V37.4456H104.14V54.5107ZM137.012 90.3457H104.995V73.2838H137.012V90.3457ZM137.012 72.4297H104.995V55.3647H137.012V72.4297ZM137.012 54.5107H104.995V37.4456H137.012V54.5107Z" fill="white"/>
<path d="M56.6242 41.5957H45.6206V52.2416H56.6242V41.5957Z" fill="#CACACA"/>
<path d="M157.931 76.0674H146.927V86.7133H157.931V76.0674Z" fill="#CACACA"/>
<path d="M60.0425 93.769H49.0389V104.415H60.0425V93.769Z" fill="#CACACA"/>
<path d="M63.2945 39.6206H52.2909V50.2665H63.2945V39.6206Z" fill="#6ADF9B"/>
<path d="M115.02 83.8736L128.078 72.2473L131.93 74.1547L116.269 90.5701L115.02 83.8736Z" fill="#FFB6B6"/>
<path d="M129.796 76.2433C131.513 76.2433 132.904 74.8529 132.904 73.1378C132.904 71.4226 131.513 70.0322 129.796 70.0322C128.08 70.0322 126.689 71.4226 126.689 73.1378C126.689 74.8529 128.08 76.2433 129.796 76.2433Z" fill="#FFB6B6"/>
<path d="M102.798 171.382H99.708L98.2381 159.472L102.798 159.472L102.798 171.382Z" fill="#FFB6B6"/>
<path d="M103.586 174.375L93.6232 174.375V174.249C93.6233 173.221 94.0319 172.236 94.7591 171.509C95.4862 170.782 96.4725 170.374 97.5009 170.374H97.5011L103.586 170.374L103.586 174.375Z" fill="#2F2E41"/>
<path d="M91.6106 171.382H88.5207L87.0509 159.472L91.6109 159.472L91.6106 171.382Z" fill="#FFB6B6"/>
<path d="M92.3985 174.375L82.436 174.375V174.249C82.4361 173.221 82.8446 172.236 83.5718 171.509C84.299 170.782 85.2853 170.374 86.3137 170.374H86.3139L92.3986 170.374L92.3985 174.375Z" fill="#2F2E41"/>
<path d="M105.393 103.303C105.393 103.303 113.162 102.682 110.676 116.346C108.19 130.011 103.04 167.39 103.04 167.39L98.3714 168.031L95.6132 118.168L93.5265 168.031L87.5888 167.39L81.7753 113.862C81.7753 113.862 79.9086 109.558 81.7742 106.586C83.6398 103.613 105.393 103.303 105.393 103.303Z" fill="#2F2E41"/>
<path d="M100.421 69.4524L102.578 68.2976C102.578 68.2976 107.892 67.8446 110.061 74.0832L115.812 82.7649L125.135 74.6905L129.175 77.4855L117.425 91.4992L112.54 92.123L101.974 78.4585L100.421 69.4524Z" fill="#3F3D56"/>
<path d="M92.5937 44.2561C83.7317 44.2561 81.2511 53.9848 81.2511 59.4733C81.2511 64.9618 86.3294 64.1317 92.5937 64.1317C95.2825 64.1317 97.7512 64.2834 99.6952 64.0239L100.63 61.7423L101.383 63.6329C102.978 63.047 103.936 61.856 103.936 59.4733C103.936 53.9848 101.761 44.2561 92.5937 44.2561Z" fill="#2F2E41"/>
<path d="M92.5558 64.1223C96.7711 64.1223 100.188 60.7073 100.188 56.4948C100.188 52.2822 96.7711 48.8672 92.5558 48.8672C88.3405 48.8672 84.9233 52.2822 84.9233 56.4948C84.9233 60.7073 88.3405 64.1223 92.5558 64.1223Z" fill="#FFB6B6"/>
<path d="M83.7372 55.7466H86.7559L88.0877 52.0199L88.354 55.7466H89.7969L90.5738 53.5727L90.7292 55.7466H101.45C101.45 53.6051 100.599 51.5513 99.0838 50.0371C97.5686 48.5228 95.5135 47.6721 93.3706 47.6721H91.8168C89.674 47.6721 87.6189 48.5228 86.1036 50.0371C84.5884 51.5513 83.7372 53.6051 83.7372 55.7466Z" fill="#2F2E41"/>
<path d="M134.768 61.3594H123.765V72.0053H134.768V61.3594Z" fill="#6ADF9B"/>
<path d="M107.808 100.493C106.636 100.508 103.106 79.5769 103.106 79.5769L102.578 68.2976L98.7207 68.168V67.9144C98.7207 67.4053 98.5183 66.9171 98.1581 66.5571C97.7979 66.1971 97.3093 65.9949 96.7999 65.9949H89.4543C88.9664 65.9951 88.4968 66.1811 88.1411 66.515C87.7855 66.8489 87.5704 67.3056 87.5397 67.7923L84.5152 67.6908L79.2771 84.3222C79.2771 84.3222 84.1038 99.7756 81.7742 106.586C81.7742 106.586 104.471 108.534 108.816 104.21C108.816 104.21 108.979 100.478 107.808 100.493Z" fill="#3F3D56"/>
<path d="M85.8151 69.763L84.5151 67.6908C84.5151 67.6908 80.2857 66.6458 78.5444 69.4466C76.8031 72.2474 71.6849 87.4233 71.6849 87.4233L76.9678 89.2866L82.9627 80.8875L85.8151 69.763Z" fill="#3F3D56"/>
<path d="M99.0315 80.614H88.0279V91.2599H99.0315V80.614Z" fill="#6ADF9B"/>
<path d="M79.5855 84.4617L75.7573 84.0569C75.5156 84.5723 75.3943 85.1358 75.4027 85.705C75.4111 86.2741 75.5489 86.8339 75.8057 87.3419C76.0625 87.85 76.4315 88.293 76.885 88.6375C77.3384 88.982 77.8642 89.2189 78.4228 89.3303L93.5701 92.3515L91.9901 87.4885L79.5855 84.4617Z" fill="#FFB6B6"/>
<path d="M93.6157 92.4074C95.332 92.4074 96.7233 91.017 96.7233 89.3018C96.7233 87.5867 95.332 86.1963 93.6157 86.1963C91.8995 86.1963 90.5081 87.5867 90.5081 89.3018C90.5081 91.017 91.8995 92.4074 93.6157 92.4074Z" fill="#FFB6B6"/>
<path d="M89.7363 92.5019L78.1966 89.8668C77.3604 89.6735 76.5883 89.2678 75.955 88.6888C75.3217 88.1099 74.8487 87.3774 74.5817 86.5623L74.1154 85.125L77.1103 82.7698L90.831 86.6023L89.7363 92.5019Z" fill="#3F3D56"/>
</g>
<defs>
<clipPath id="clip0_286_2534">
<rect width="180" height="175" fill="white"/>
</clipPath>
</defs>
</svg>
