<svg width="93" height="17" viewBox="0 0 93 17" fill="none" xmlns="http://www.w3.org/2000/svg">
<path d="M8.5 1.41669L10.6888 5.85085L15.5833 6.56627L12.0417 10.0159L12.8775 14.8892L8.5 12.5871L4.1225 14.8892L4.95833 10.0159L1.41667 6.56627L6.31125 5.85085L8.5 1.41669Z" fill="#FCB000"/>
<path d="M27.5 1.41669L29.6888 5.85085L34.5833 6.56627L31.0417 10.0159L31.8775 14.8892L27.5 12.5871L23.1225 14.8892L23.9583 10.0159L20.4167 6.56627L25.3113 5.85085L27.5 1.41669Z" fill="#FCB000"/>
<path d="M46.5 1.41669L48.6888 5.85085L53.5833 6.56627L50.0417 10.0159L50.8775 14.8892L46.5 12.5871L42.1225 14.8892L42.9583 10.0159L39.4167 6.56627L44.3112 5.85085L46.5 1.41669Z" fill="#FCB000"/>
<path d="M65.5 1.41669L67.6888 5.85085L72.5833 6.56627L69.0417 10.0159L69.8775 14.8892L65.5 12.5871L61.1225 14.8892L61.9583 10.0159L58.4167 6.56627L63.3113 5.85085L65.5 1.41669Z" fill="#FCB000"/>
<path d="M84.5 1.41669L86.6888 5.85085L91.5833 6.56627L88.0417 10.0159L88.8775 14.8892L84.5 12.5871L80.1225 14.8892L80.9583 10.0159L77.4167 6.56627L82.3113 5.85085L84.5 1.41669Z" fill="#FCB000"/>
</svg>
